<svg width="40" height="41" viewBox="0 0 40 41" fill="none" xmlns="http://www.w3.org/2000/svg">
<path fill-rule="evenodd" clip-rule="evenodd" d="M36.3354 22.9258C36.0339 22.6244 35.8357 22.2352 35.7692 21.814L34.0249 10.7663C33.7692 9.14719 32.5594 7.8437 30.9638 7.46827L2.48089 0.766411C1.02242 0.423242 -0.28794 1.7336 0.0552292 3.19206L6.75709 31.675C7.13252 33.2706 8.43601 34.4804 10.0551 34.7361L21.1028 36.4804C21.5239 36.5469 21.9132 36.7451 22.2146 37.0466L24.6976 39.5295C26.2731 41.1051 28.8276 41.1051 30.4032 39.5295L38.8183 31.1144C40.3939 29.5388 40.3939 26.9843 38.8183 25.4088L36.3354 22.9258ZM31.036 11.2382L32.7804 22.286C32.9466 23.3388 33.4421 24.3118 34.1958 25.0655L36.6787 27.5484C37.0726 27.9423 37.0726 28.5809 36.6787 28.9748L28.2636 37.3899C27.8697 37.7838 27.2311 37.7838 26.8372 37.3899L24.3542 34.907C23.6006 34.1533 22.6275 33.6578 21.5748 33.4916L10.527 31.7472C10.1223 31.6833 9.79639 31.3808 9.70253 30.9819L4.03219 6.88298L14.6369 17.4877C14.1892 18.2879 13.934 19.2104 13.934 20.1926C13.934 23.2563 16.4176 25.74 19.4814 25.74C22.5452 25.74 25.0288 23.2563 25.0288 20.1926C25.0288 17.1288 22.5452 14.6451 19.4814 14.6451C18.4993 14.6451 17.5767 14.9004 16.7765 15.3481L6.17183 4.74338L30.2708 10.4137C30.6696 10.5076 30.9721 10.8334 31.036 11.2382ZM19.4814 22.7141C20.874 22.7141 22.003 21.5852 22.003 20.1926C22.003 18.7999 20.874 17.671 19.4814 17.671C18.0888 17.671 16.9598 18.7999 16.9598 20.1926C16.9598 21.5852 18.0888 22.7141 19.4814 22.7141Z" fill="#101137"/>
</svg>
