<svg width="46" height="41" viewBox="0 0 46 41" fill="none" xmlns="http://www.w3.org/2000/svg">
<path fill-rule="evenodd" clip-rule="evenodd" d="M16.4286 35.7588H4.38095C1.96142 35.7588 0 33.7974 0 31.3778V5.09213C0 2.6726 1.96142 0.711182 4.38095 0.711182H16.4286C19.1156 0.711182 21.5013 2.00139 23 3.99609C24.4987 2.00139 26.8844 0.711182 29.5714 0.711182H41.619C44.0386 0.711182 46 2.6726 46 5.09213V31.3778C46 33.7974 44.0386 35.7588 41.619 35.7588H29.5714C27.6193 35.7588 25.9322 36.8937 25.1342 38.5398C24.7186 39.3967 23.9522 40.1398 23 40.1398C22.0478 40.1398 21.2814 39.3967 20.8658 38.5398C20.0678 36.8937 18.3807 35.7588 16.4286 35.7588ZM3.28571 5.09213C3.28571 4.48726 3.77607 3.9969 4.38095 3.9969H16.4286C19.1505 3.9969 21.3571 6.20349 21.3571 8.92547V34.1153C19.9844 33.0842 18.2778 32.4731 16.4286 32.4731H4.38095C3.77607 32.4731 3.28571 31.9826 3.28571 31.3778V5.09213ZM29.5714 3.9969C26.8495 3.9969 24.6429 6.20349 24.6429 8.92547V34.1153C26.0156 33.0842 27.7222 32.4731 29.5714 32.4731H41.619C42.2238 32.4731 42.7143 31.9826 42.7143 31.3778V5.09213C42.7143 4.48726 42.2238 3.9969 41.619 3.9969H29.5714Z" fill="#101137"/>
</svg>
