<svg width="40" height="41" viewBox="0 0 40 41" fill="none" xmlns="http://www.w3.org/2000/svg">
<path d="M0 15.1874C0 10.1202 0 7.58666 0.986131 5.65127C1.85356 3.94885 3.23767 2.56474 4.94009 1.69731C6.87548 0.711182 9.40905 0.711182 14.4762 0.711182H25.5238C30.591 0.711182 33.1245 0.711182 35.0599 1.69731C36.7623 2.56474 38.1464 3.94885 39.0139 5.65127C40 7.58666 40 10.1202 40 15.1874V26.235C40 31.3021 40 33.8357 39.0139 35.7711C38.1464 37.4735 36.7623 38.8576 35.0599 39.7251C33.1245 40.7112 30.591 40.7112 25.5238 40.7112H14.4762C9.40905 40.7112 6.87548 40.7112 4.94009 39.7251C3.23767 38.8576 1.85356 37.4735 0.986131 35.7711C0 33.8357 0 31.3021 0 26.235V15.1874Z" fill="white"/>
<path fill-rule="evenodd" clip-rule="evenodd" d="M20.7412 20.7112C20.7412 17.8475 23.0627 15.526 25.9264 15.526C28.7901 15.526 31.1116 17.8475 31.1116 20.7112C31.1116 23.5749 28.7901 25.8964 25.9264 25.8964C23.0627 25.8964 20.7412 23.5749 20.7412 20.7112Z" fill="#1ABCFE"/>
<path fill-rule="evenodd" clip-rule="evenodd" d="M10.3701 31.0815C10.3701 28.2178 12.6916 25.8964 15.5553 25.8964H20.7405V31.0815C20.7405 33.9452 18.419 36.2667 15.5553 36.2667C12.6916 36.2667 10.3701 33.9452 10.3701 31.0815Z" fill="#0ACF83"/>
<path fill-rule="evenodd" clip-rule="evenodd" d="M20.7412 5.15564V15.526H25.9264C28.7901 15.526 31.1116 13.2045 31.1116 10.3408C31.1116 7.47713 28.7901 5.15564 25.9264 5.15564H20.7412Z" fill="#FF7262"/>
<path fill-rule="evenodd" clip-rule="evenodd" d="M10.3701 10.3408C10.3701 13.2045 12.6916 15.526 15.5553 15.526H20.7405V5.15564H15.5553C12.6916 5.15564 10.3701 7.47713 10.3701 10.3408Z" fill="#F24E1E"/>
<path fill-rule="evenodd" clip-rule="evenodd" d="M10.3701 20.7112C10.3701 23.5749 12.6916 25.8964 15.5553 25.8964H20.7405V15.526H15.5553C12.6916 15.526 10.3701 17.8475 10.3701 20.7112Z" fill="#A259FF"/>
</svg>
