<svg width="47" height="30" viewBox="0 0 47 30" fill="none" xmlns="http://www.w3.org/2000/svg">
<path fill-rule="evenodd" clip-rule="evenodd" d="M3.87097 3.87097C3.87097 1.73309 5.60406 0 7.74194 0H38.7097C40.8476 0 42.5806 1.73309 42.5806 3.87097V24.6774C42.5806 25.5929 42.2628 26.4341 41.7316 27.0968H45C45.8017 27.0968 46.4516 27.7467 46.4516 28.5484C46.4516 29.3501 45.8017 30 45 30H1.45161C0.649908 30 0 29.3501 0 28.5484C0 27.7467 0.649908 27.0968 1.45161 27.0968H4.71999C4.18874 26.4341 3.87097 25.5929 3.87097 24.6774V3.87097ZM6.77419 3.87097C6.77419 3.3365 7.20747 2.90323 7.74194 2.90323H38.7097C39.2441 2.90323 39.6774 3.3365 39.6774 3.87097V24.6774C39.6774 25.2118 39.2441 25.6452 38.7097 25.6452H7.74194C7.20747 25.6452 6.77419 25.2118 6.77419 24.6774V3.87097Z" fill="#101137"/>
</svg>
