<svg width="46" height="41" viewBox="0 0 46 41" fill="none" xmlns="http://www.w3.org/2000/svg">
<path fill-rule="evenodd" clip-rule="evenodd" d="M38.0053 18.0239V29.7185C38.0053 31.1401 37.2503 32.455 36.0221 33.1714L24.0301 40.1667C22.7855 40.8926 21.2466 40.8926 20.0018 40.1667L8.0099 33.1714C6.78185 32.455 6.02671 31.1401 6.02671 29.7185V18.0239L0.991598 15.0866C-0.330532 14.3154 -0.330534 12.4051 0.991598 11.6338L20.0018 0.544511C21.2466 -0.181504 22.7855 -0.181504 24.0301 0.544511L45.0085 12.7818C45.6225 13.14 46 13.7974 46 14.5082V25.8518C46 26.6797 45.3288 27.3508 44.501 27.3508C43.6732 27.3508 43.002 26.6797 43.002 25.8518V15.1091L38.0053 18.0239ZM9.02471 19.7727V29.7185C9.02471 30.0738 9.21348 30.4026 9.5205 30.5817L21.5126 37.577C21.8236 37.7585 22.2083 37.7585 22.5195 37.577L34.5115 30.5817C34.8185 30.4026 35.0074 30.0738 35.0074 29.7185V19.7727L24.0301 26.176C22.7855 26.9019 21.2466 26.9019 20.0018 26.176L9.02471 19.7727ZM40.05 13.3602L22.5195 3.13412C22.2083 2.95262 21.8236 2.95262 21.5126 3.13412L3.98198 13.3602L21.5126 23.5864C21.8236 23.7678 22.2083 23.7678 22.5195 23.5864L40.05 13.3602Z" fill="#101137"/>
</svg>
