<svg width="16" height="17" viewBox="0 0 16 17" fill="none" xmlns="http://www.w3.org/2000/svg">
<path d="M4.44444 0.5C1.99378 0.5 0 2.49378 0 4.94444V12.0556C0 14.5062 1.99378 16.5 4.44444 16.5H11.5556C14.0062 16.5 16 14.5062 16 12.0556V4.94444C16 2.49378 14.0062 0.5 11.5556 0.5H4.44444ZM4.44444 2.27778H11.5556C13.0258 2.27778 14.2222 3.47422 14.2222 4.94444V12.0556C14.2222 13.5258 13.0258 14.7222 11.5556 14.7222H4.44444C2.97422 14.7222 1.77778 13.5258 1.77778 12.0556V4.94444C1.77778 3.47422 2.97422 2.27778 4.44444 2.27778ZM12.4444 3.16667C12.2087 3.16667 11.9826 3.26032 11.8159 3.42702C11.6492 3.59372 11.5556 3.81981 11.5556 4.05556C11.5556 4.2913 11.6492 4.5174 11.8159 4.68409C11.9826 4.85079 12.2087 4.94444 12.4444 4.94444C12.6802 4.94444 12.9063 4.85079 13.073 4.68409C13.2397 4.5174 13.3333 4.2913 13.3333 4.05556C13.3333 3.81981 13.2397 3.59372 13.073 3.42702C12.9063 3.26032 12.6802 3.16667 12.4444 3.16667ZM8 4.05556C5.54933 4.05556 3.55556 6.04933 3.55556 8.5C3.55556 10.9507 5.54933 12.9444 8 12.9444C10.4507 12.9444 12.4444 10.9507 12.4444 8.5C12.4444 6.04933 10.4507 4.05556 8 4.05556ZM8 5.83333C9.47022 5.83333 10.6667 7.02978 10.6667 8.5C10.6667 9.97022 9.47022 11.1667 8 11.1667C6.52978 11.1667 5.33333 9.97022 5.33333 8.5C5.33333 7.02978 6.52978 5.83333 8 5.83333Z" fill="#101137"/>
</svg>
