<svg width="40" height="41" viewBox="0 0 40 41" fill="none" xmlns="http://www.w3.org/2000/svg">
<path d="M0 15.1874C0 10.1202 0 7.58666 0.986131 5.65127C1.85356 3.94885 3.23767 2.56474 4.94009 1.69731C6.87548 0.711182 9.40905 0.711182 14.4762 0.711182H25.5238C30.591 0.711182 33.1245 0.711182 35.0599 1.69731C36.7623 2.56474 38.1464 3.94885 39.0139 5.65127C40 7.58666 40 10.1202 40 15.1874V26.235C40 31.3021 40 33.8357 39.0139 35.7711C38.1464 37.4735 36.7623 38.8576 35.0599 39.7251C33.1245 40.7112 30.591 40.7112 25.5238 40.7112H14.4762C9.40905 40.7112 6.87548 40.7112 4.94009 39.7251C3.23767 38.8576 1.85356 37.4735 0.986131 35.7711C0 33.8357 0 31.3021 0 26.235V15.1874Z" fill="#001E36"/>
<path d="M8.57129 30.0202V12.4304C8.57129 12.3108 8.62129 12.2424 8.73796 12.2424C10.4603 12.2424 12.1818 12.1398 13.9046 12.1398C16.7001 12.1398 19.727 13.0957 20.788 16.0202C21.038 16.7381 21.1713 17.4732 21.1713 18.2424C21.1713 19.7125 20.838 20.9262 20.1713 21.8834C18.309 24.5575 15.0813 24.5159 12.188 24.5159V30.0031C12.2106 30.1655 12.0721 30.2424 11.938 30.2424H8.77129C8.63796 30.2424 8.57129 30.174 8.57129 30.0202ZM12.2046 15.5415V21.2851C13.3518 21.3692 14.5523 21.3783 15.6546 21.0116C16.8715 20.6606 17.538 19.6072 17.538 18.345C17.5718 17.2694 16.9857 16.2374 15.988 15.8492C14.899 15.3964 13.3802 15.3693 12.2046 15.5415Z" fill="#31A8FF"/>
<path d="M31.5665 20.1504C31.0622 19.8846 30.5251 19.6902 29.9699 19.5724C29.2564 19.4045 26.4424 18.8166 26.4414 20.288C26.4663 21.1094 27.7703 21.5119 28.3465 21.7466C30.3691 22.441 32.658 23.6823 32.613 26.1775C32.6748 29.2839 29.6652 30.5256 27.0853 30.5259C25.7422 30.5398 24.3431 30.3318 23.114 29.7553C22.9966 29.6932 22.9211 29.5604 22.9261 29.425V26.4527C22.9129 26.3336 23.0408 26.2294 23.1408 26.3151C24.3451 27.0435 25.7726 27.3971 27.1658 27.416C27.7808 27.416 28.9997 27.3564 28.9905 26.4527C28.9905 25.5856 27.5324 25.1869 26.9511 24.9666C26.1086 24.6658 25.3097 24.2492 24.5764 23.7281C23.5516 22.9971 22.9086 21.8251 22.9261 20.5357C22.9201 17.6108 25.6905 16.298 28.1855 16.2974C29.3519 16.2877 30.6044 16.3741 31.6901 16.8478C31.8463 16.8938 31.8786 17.0582 31.8779 17.2056V19.9852C31.8879 20.1578 31.6962 20.2165 31.5665 20.1504Z" fill="#31A8FF"/>
</svg>
