<svg width="40" height="41" viewBox="0 0 40 41" fill="none" xmlns="http://www.w3.org/2000/svg">
<path d="M0 15.1874C0 10.1202 0 7.58666 0.986131 5.65127C1.85356 3.94885 3.23767 2.56474 4.94009 1.69731C6.87548 0.711182 9.40905 0.711182 14.4762 0.711182H25.5238C30.591 0.711182 33.1245 0.711182 35.0599 1.69731C36.7623 2.56474 38.1464 3.94885 39.0139 5.65127C40 7.58666 40 10.1202 40 15.1874V26.235C40 31.3021 40 33.8357 39.0139 35.7711C38.1464 37.4735 36.7623 38.8576 35.0599 39.7251C33.1245 40.7112 30.591 40.7112 25.5238 40.7112H14.4762C9.40905 40.7112 6.87548 40.7112 4.94009 39.7251C3.23767 38.8576 1.85356 37.4735 0.986131 35.7711C0 33.8357 0 31.3021 0 26.235V15.1874Z" fill="#330000"/>
<path d="M19.3835 25.8487H13.185L11.9239 29.8668C11.8888 30.0161 11.7514 30.1219 11.6018 30.1145H8.46235C8.28331 30.1145 8.2207 30.0136 8.27451 29.8118L13.6411 13.9595C13.6949 13.7944 13.7485 13.6063 13.8022 13.3953C13.8724 13.0281 13.9083 12.6549 13.9095 12.2807C13.8942 12.1702 13.9913 12.0725 14.0974 12.088H18.3638C18.4888 12.088 18.5604 12.1339 18.5785 12.2257L24.6697 29.8393C24.7233 30.0229 24.6697 30.1147 24.5087 30.1145H21.0203C20.8979 30.1284 20.7811 30.0445 20.752 29.9219L19.3835 25.8487ZM14.151 22.381H18.3907C17.6941 20.0008 16.908 17.6518 16.2709 15.253C15.5834 17.6558 14.8334 20.049 14.151 22.381Z" fill="#FF9A00"/>
<path d="M28.2919 15.0052C28.0182 15.0165 27.7452 14.9684 27.4909 14.864C27.2366 14.7597 27.0066 14.6015 26.816 14.3997C26.6259 14.1892 26.4783 13.9423 26.3816 13.6731C26.2849 13.4039 26.241 13.1177 26.2525 12.831C26.2427 12.5472 26.2914 12.2644 26.3955 12.0013C26.4995 11.7381 26.6565 11.5003 26.8562 11.3036C27.054 11.1089 27.2875 10.9563 27.5431 10.8548C27.7987 10.7532 28.0714 10.7046 28.3455 10.7119C28.9895 10.7119 29.4949 10.9091 29.8616 11.3036C30.0467 11.5086 30.1906 11.749 30.2849 12.0111C30.3793 12.2732 30.4224 12.5518 30.4116 12.831C30.4229 13.1188 30.3776 13.406 30.2785 13.6755C30.1794 13.9449 30.0285 14.1912 29.8347 14.3997C29.6323 14.6045 29.3906 14.7639 29.1251 14.8681C28.8596 14.9724 28.5758 15.019 28.2919 15.0052ZM26.4403 29.8392V16.684C26.4403 16.5189 26.5116 16.4363 26.655 16.4363H29.9555C30.0985 16.4363 30.1701 16.5189 30.1702 16.684V29.8392C30.1702 30.0228 30.0986 30.1146 29.9555 30.1144H26.6818C26.5209 30.1144 26.4403 30.0227 26.4403 29.8392Z" fill="#FF9A00"/>
</svg>
