<svg width="40" height="41" viewBox="0 0 40 41" fill="none" xmlns="http://www.w3.org/2000/svg">
<path d="M0 15.1874C0 10.1202 0 7.58666 0.986131 5.65127C1.85356 3.94885 3.23767 2.56474 4.94009 1.69731C6.87548 0.711182 9.40905 0.711182 14.4762 0.711182H25.5238C30.591 0.711182 33.1245 0.711182 35.0599 1.69731C36.7623 2.56474 38.1464 3.94885 39.0139 5.65127C40 7.58666 40 10.1202 40 15.1874V26.235C40 31.3021 40 33.8357 39.0139 35.7711C38.1464 37.4735 36.7623 38.8576 35.0599 39.7251C33.1245 40.7112 30.591 40.7112 25.5238 40.7112H14.4762C9.40905 40.7112 6.87548 40.7112 4.94009 39.7251C3.23767 38.8576 1.85356 37.4735 0.986131 35.7711C0 33.8357 0 31.3021 0 26.235V15.1874Z" fill="#470137"/>
<path d="M20.9231 12.4738L15.9321 20.9228L21.2719 29.8948C21.3829 30.0982 21.2719 30.1431 21.111 30.1431H17.3007C17.0323 30.1431 16.8444 30.1335 16.7371 29.9498C16.379 29.2343 16.0212 28.5233 15.6638 27.817C15.3057 27.1108 14.9256 26.3907 14.5234 25.6565C14.1209 24.9229 13.7229 24.1798 13.3293 23.4273C12.9712 24.1613 12.5732 24.8952 12.1888 25.629C11.804 26.363 11.4239 27.0924 11.0485 27.817C10.6728 28.5419 10.2882 29.2621 9.89465 29.9774C9.82295 30.1425 9.69755 30.1595 9.51892 30.1595H5.84281C5.69837 30.1595 5.68094 30.0509 5.76233 29.9223L10.9411 21.198L5.89644 12.4462C5.8048 12.3214 5.88367 12.1883 6.03063 12.1985H9.81408C9.97791 12.1893 10.1227 12.2511 10.2166 12.3912C10.5386 13.1252 10.8964 13.8591 11.2899 14.5929C11.6832 15.327 12.0813 16.0517 12.484 16.7671C12.8865 17.4827 13.2846 18.2074 13.6245 18.9413C13.982 18.1892 14.3443 17.4553 14.7112 16.7396C15.0777 16.024 15.4533 15.3039 15.8382 14.5791C16.2227 13.8546 16.5939 13.1344 16.9518 12.4187C16.9993 12.2617 17.113 12.1822 17.2738 12.1985H20.7889C20.9231 12.1985 20.9786 12.3817 20.9231 12.4738Z" fill="#FF61F6"/>
<path d="M28.6241 30.5005C26.2576 30.5374 23.7789 29.5631 22.5329 27.4043C21.9245 26.368 21.6204 25.0699 21.6206 23.5101C21.6105 22.2469 21.9252 21.0034 22.5329 19.9047C24.101 17.1016 27.2601 16.0514 30.2609 16.327V10.9053C30.2609 10.7771 30.3146 10.7126 30.4219 10.7126H33.8029C33.8953 10.6991 33.9771 10.7829 33.9639 10.8777V27.1429C33.9639 27.814 34.0304 28.4827 34.0713 29.1519C34.0778 29.2663 34.0117 29.3793 33.9102 29.4271C32.2397 30.1417 30.4322 30.4922 28.6241 30.5005ZM30.2609 27.0878V19.5745C27.8101 18.8936 25.4306 20.7603 25.4309 23.3449C25.3727 26.017 27.6761 27.8632 30.2609 27.0878Z" fill="#FF61F6"/>
</svg>
