<svg width="346" height="262" viewBox="0 0 346 262" fill="none" xmlns="http://www.w3.org/2000/svg">
<mask id="path-1-outside-1_675_17" maskUnits="userSpaceOnUse" x="5" y="0" width="338" height="97" fill="black">
<rect fill="white" x="5" width="338" height="97"/>
<path d="M17.95 93H7.255V12.27H33.36C53.025 12.27 62.34 23.655 62.34 37.11C62.34 51.485 51.875 63.56 37.615 63.56C30.37 63.56 23.24 60.685 18.41 54.59H17.95V93ZM32.9 59.075C45.32 59.075 52.105 48.495 52.105 37.57C52.105 26.185 44.745 14.57 28.415 14.57H17.95V51.37C22.205 56.545 27.725 59.075 32.9 59.075ZM109.869 94.955C91.0091 94.955 78.2441 82.535 78.2441 59.65C78.2441 37.8 91.1241 24.69 109.869 24.69C128.729 24.69 141.609 37.685 141.609 59.19C141.609 82.535 128.844 94.955 109.869 94.955ZM113.089 92.425C125.049 92.425 131.949 80.005 131.949 66.435C131.949 48.495 121.714 27.335 106.074 27.335C93.7691 27.335 88.0191 39.64 88.0191 53.095C88.0191 71.38 97.7941 92.425 113.089 92.425ZM172.612 93H161.917V26.53H172.612V46.885C176.982 34.465 183.767 24.69 195.497 24.69C202.052 24.69 205.157 26.53 210.677 26.53V37.225C203.662 37.225 199.752 30.095 191.817 29.635C180.202 29.635 174.567 45.965 172.612 52.98V93ZM246.287 94.955C234.097 94.955 229.497 85.295 229.497 75.405V33.89C229.497 29.75 227.887 28.6 222.597 28.14V26.53C233.867 26.53 237.432 19.63 238.352 2.49499H240.077L240.192 26.53H256.292V28.83H240.192V79.085C240.192 87.365 242.952 92.885 248.012 92.885C257.327 92.885 259.627 77.245 268.137 77.245V88.4C261.697 87.365 256.637 94.955 246.287 94.955ZM321.307 24.69C331.772 24.69 340.857 29.52 340.857 42.515V93H330.162V81.27C325.332 89.09 316.132 94.955 306.702 94.955C294.857 94.955 283.817 88.055 283.817 75.52C283.817 63.33 294.397 56.775 305.207 50.105C314.062 44.47 323.147 38.835 326.712 29.75C324.872 27.795 322.227 26.645 319.237 26.645C308.887 26.645 303.482 38.605 293.132 38.605V27.795C294.282 28.025 295.547 28.255 296.697 28.255C305.207 28.255 311.532 24.69 321.307 24.69ZM330.162 77.935V39.41C330.162 36.19 329.357 33.43 327.977 31.245V31.36C324.182 40.215 317.052 45.62 310.382 50.795C301.987 57.12 294.512 62.87 294.512 74.14C294.512 85.64 301.527 91.39 309.692 91.39C317.052 91.39 325.447 86.79 330.162 77.935Z"/>
</mask>
<path d="M17.95 93V95H19.95V93H17.95ZM7.255 93H5.255V95H7.255V93ZM7.255 12.27V10.27H5.255V12.27H7.255ZM18.41 54.59L19.9775 53.3478L19.3769 52.59H18.41V54.59ZM17.95 54.59V52.59H15.95V54.59H17.95ZM17.95 14.57V12.57H15.95V14.57H17.95ZM17.95 51.37H15.95V52.0866L16.4052 52.6402L17.95 51.37ZM17.95 91H7.255V95H17.95V91ZM9.255 93V12.27H5.255V93H9.255ZM7.255 14.27H33.36V10.27H7.255V14.27ZM33.36 14.27C42.8055 14.27 49.5158 16.9974 53.85 21.0973C58.1823 25.1955 60.34 30.8513 60.34 37.11H64.34C64.34 29.9137 61.8402 23.1495 56.5988 18.1914C51.3592 13.2351 43.5795 10.27 33.36 10.27V14.27ZM60.34 37.11C60.34 50.5547 50.6038 61.56 37.615 61.56V65.56C53.1462 65.56 64.34 52.4153 64.34 37.11H60.34ZM37.615 61.56C30.8965 61.56 24.3787 58.9017 19.9775 53.3478L16.8425 55.8322C22.1013 62.4683 29.8435 65.56 37.615 65.56V61.56ZM18.41 52.59H17.95V56.59H18.41V52.59ZM15.95 54.59V93H19.95V54.59H15.95ZM32.9 61.075C39.7395 61.075 45.1024 58.1369 48.7141 53.6782C52.2912 49.2623 54.105 43.4232 54.105 37.57H50.105C50.105 42.6418 48.5263 47.5552 45.6059 51.1605C42.7201 54.7231 38.4805 57.075 32.9 57.075V61.075ZM54.105 37.57C54.105 31.4665 52.1338 25.2157 47.8726 20.4652C43.5764 15.6757 37.0926 12.57 28.415 12.57V16.57C36.0674 16.57 41.4286 19.2718 44.895 23.1361C48.3962 27.0393 50.105 32.2885 50.105 37.57H54.105ZM28.415 12.57H17.95V16.57H28.415V12.57ZM15.95 14.57V51.37H19.95V14.57H15.95ZM16.4052 52.6402C20.9973 58.2252 27.0626 61.075 32.9 61.075V57.075C28.3874 57.075 23.4127 54.8648 19.4949 50.0998L16.4052 52.6402ZM109.869 92.955C100.891 92.955 93.5538 90.011 88.4486 84.5223C83.3296 79.0186 80.2441 70.7285 80.2441 59.65H76.2441C76.2441 71.4565 79.5412 80.8189 85.5197 87.2465C91.5119 93.689 99.9871 96.955 109.869 96.955V92.955ZM80.2441 59.65C80.2441 49.1152 83.3441 40.8983 88.4949 35.335C93.6332 29.785 100.982 26.69 109.869 26.69V22.69C100.011 22.69 91.5475 26.15 85.5597 32.6175C79.5842 39.0716 76.2441 48.3348 76.2441 59.65H80.2441ZM109.869 26.69C118.823 26.69 126.204 29.7629 131.354 35.245C136.514 40.7377 139.609 48.836 139.609 59.19H143.609C143.609 48.039 140.264 38.8873 134.269 32.5062C128.265 26.1146 119.775 22.69 109.869 22.69V26.69ZM139.609 59.19C139.609 70.5083 136.518 78.9127 131.386 84.4699C126.269 90.0097 118.907 92.955 109.869 92.955V96.955C119.806 96.955 128.314 93.6903 134.324 87.1839C140.317 80.6948 143.609 71.2167 143.609 59.19H139.609ZM113.089 94.425C119.863 94.425 125.151 90.8733 128.665 85.6327C132.151 80.4351 133.949 73.5277 133.949 66.435H129.949C129.949 72.9123 128.297 78.9999 125.343 83.4048C122.418 87.7667 118.276 90.425 113.089 90.425V94.425ZM133.949 66.435C133.949 57.1279 131.305 46.9933 126.592 39.1295C121.9 31.2994 114.892 25.335 106.074 25.335V29.335C112.896 29.335 118.826 33.9506 123.161 41.1855C127.476 48.3867 129.949 57.8021 129.949 66.435H133.949ZM106.074 25.335C99.1285 25.335 94.0191 28.86 90.7366 34.1089C87.5026 39.2801 86.0191 46.1232 86.0191 53.095H90.0191C90.0191 46.6118 91.4107 40.5749 94.128 36.2298C96.7967 31.9625 100.715 29.335 106.074 29.335V25.335ZM86.0191 53.095C86.0191 62.5524 88.5381 72.736 93.0863 80.6166C97.6122 88.4584 104.419 94.425 113.089 94.425V90.425C106.465 90.425 100.736 85.8691 96.5507 78.6171C92.3877 71.404 90.0191 61.9226 90.0191 53.095H86.0191ZM172.612 93V95H174.612V93H172.612ZM161.917 93H159.917V95H161.917V93ZM161.917 26.53V24.53H159.917V26.53H161.917ZM172.612 26.53H174.612V24.53H172.612V26.53ZM172.612 46.885H170.612L174.498 47.5488L172.612 46.885ZM210.677 26.53H212.677V24.53H210.677V26.53ZM210.677 37.225V39.225H212.677V37.225H210.677ZM191.817 29.635L191.932 27.6384L191.874 27.635H191.817V29.635ZM172.612 52.98L170.685 52.4431L170.612 52.7065V52.98H172.612ZM172.612 91H161.917V95H172.612V91ZM163.917 93V26.53H159.917V93H163.917ZM161.917 28.53H172.612V24.53H161.917V28.53ZM170.612 26.53V46.885H174.612V26.53H170.612ZM174.498 47.5488C178.841 35.2051 185.187 26.69 195.497 26.69V22.69C182.346 22.69 175.122 33.7249 170.725 46.2212L174.498 47.5488ZM195.497 26.69C198.568 26.69 200.824 27.1167 203.08 27.5707C205.343 28.026 207.688 28.53 210.677 28.53V24.53C208.145 24.53 206.178 24.114 203.869 23.6493C201.554 23.1833 198.98 22.69 195.497 22.69V26.69ZM208.677 26.53V37.225H212.677V26.53H208.677ZM210.677 35.225C207.853 35.225 205.61 33.819 202.677 31.9229C199.866 30.1058 196.493 27.9027 191.932 27.6384L191.701 31.6316C195.075 31.8272 197.624 33.4192 200.506 35.2821C203.265 37.066 206.485 39.225 210.677 39.225V35.225ZM191.817 27.635C184.956 27.635 180.119 32.4679 176.896 37.6156C173.637 42.8209 171.679 48.8778 170.685 52.4431L174.538 53.5169C175.5 50.0672 177.336 44.4516 180.287 39.7382C183.274 34.9671 187.062 31.635 191.817 31.635V27.635ZM170.612 52.98V93H174.612V52.98H170.612ZM222.597 28.14H220.597V29.9736L222.424 30.1325L222.597 28.14ZM222.597 26.53V24.53H220.597V26.53H222.597ZM238.352 2.49499V0.494993H236.456L236.355 2.38776L238.352 2.49499ZM240.077 2.49499L242.077 2.48542L242.067 0.494993H240.077V2.49499ZM240.192 26.53L238.192 26.5396L238.202 28.53H240.192V26.53ZM256.292 26.53H258.292V24.53H256.292V26.53ZM256.292 28.83V30.83H258.292V28.83H256.292ZM240.192 28.83V26.83H238.192V28.83H240.192ZM268.137 77.245H270.137V75.245H268.137V77.245ZM268.137 88.4L267.82 90.3747L270.137 90.7471V88.4H268.137ZM246.287 92.955C240.798 92.955 237.213 90.8191 234.934 87.7071C232.59 84.5063 231.497 80.0813 231.497 75.405H227.497C227.497 80.6187 228.704 85.9687 231.707 90.0704C234.776 94.2609 239.586 96.955 246.287 96.955V92.955ZM231.497 75.405V33.89H227.497V75.405H231.497ZM231.497 33.89C231.497 31.6206 231.065 29.5204 229.29 28.0815C227.702 26.7933 225.396 26.3759 222.77 26.1475L222.424 30.1325C225.088 30.3641 226.232 30.7517 226.771 31.1885C227.124 31.4746 227.497 32.0194 227.497 33.89H231.497ZM224.597 28.14V26.53H220.597V28.14H224.597ZM222.597 28.53C225.609 28.53 228.26 28.0704 230.539 26.9921C232.846 25.9007 234.658 24.2293 236.052 21.9976C238.763 17.6564 239.889 11.181 240.349 2.60222L236.355 2.38776C235.895 10.944 234.778 16.4861 232.659 19.8787C231.638 21.5138 230.389 22.6383 228.829 23.3762C227.241 24.1271 225.22 24.53 222.597 24.53V28.53ZM238.352 4.49499H240.077V0.494993H238.352V4.49499ZM238.077 2.50456L238.192 26.5396L242.192 26.5204L242.077 2.48542L238.077 2.50456ZM240.192 28.53H256.292V24.53H240.192V28.53ZM254.292 26.53V28.83H258.292V26.53H254.292ZM256.292 26.83H240.192V30.83H256.292V26.83ZM238.192 28.83V79.085H242.192V28.83H238.192ZM238.192 79.085C238.192 83.4022 238.904 87.2278 240.45 90.0506C242.041 92.9557 244.594 94.885 248.012 94.885V90.885C246.37 90.885 245.013 90.0543 243.959 88.1294C242.859 86.1222 242.192 83.0478 242.192 79.085H238.192ZM248.012 94.885C250.969 94.885 253.311 93.6223 255.214 91.9396C257.069 90.2995 258.621 88.156 260.002 86.2303C261.443 84.2201 262.698 82.449 264.083 81.1451C265.424 79.8831 266.697 79.245 268.137 79.245V75.245C265.322 75.245 263.116 76.5619 261.341 78.2323C259.611 79.861 258.113 81.9999 256.751 83.8997C255.328 85.884 254.027 87.6505 252.565 88.9429C251.151 90.1927 249.713 90.885 248.012 90.885V94.885ZM266.137 77.245V88.4H270.137V77.245H266.137ZM268.454 86.4253C264.434 85.7791 260.892 87.8664 257.748 89.519C254.419 91.2686 250.939 92.955 246.287 92.955V96.955C251.985 96.955 256.21 94.8464 259.609 93.0597C263.192 91.1761 265.4 89.9859 267.82 90.3747L268.454 86.4253ZM340.857 93V95H342.857V93H340.857ZM330.162 93H328.162V95H330.162V93ZM330.162 81.27H332.162V74.226L328.46 80.219L330.162 81.27ZM305.207 50.105L306.257 51.8071L306.269 51.7998L306.28 51.7923L305.207 50.105ZM326.712 29.75L328.573 30.4806L329.036 29.3016L328.168 28.3793L326.712 29.75ZM293.132 38.605H291.132V40.605H293.132V38.605ZM293.132 27.795L293.524 25.8338L291.132 25.3554V27.795H293.132ZM330.162 77.935L331.927 78.875L332.162 78.4343V77.935H330.162ZM327.977 31.245L329.668 30.177L325.977 24.333V31.245H327.977ZM327.977 31.36L329.815 32.1478L329.977 31.7705V31.36H327.977ZM310.382 50.795L311.585 52.3924L311.596 52.3839L311.608 52.3752L310.382 50.795ZM321.307 26.69C326.271 26.69 330.659 27.8407 333.765 30.2978C336.793 32.6938 338.857 36.5314 338.857 42.515H342.857C342.857 35.5036 340.377 30.4287 336.247 27.1609C332.194 23.9542 326.807 22.69 321.307 22.69V26.69ZM338.857 42.515V93H342.857V42.515H338.857ZM340.857 91H330.162V95H340.857V91ZM332.162 93V81.27H328.162V93H332.162ZM328.46 80.219C323.944 87.5309 315.347 92.955 306.702 92.955V96.955C316.916 96.955 326.719 90.6491 331.863 82.321L328.46 80.219ZM306.702 92.955C301.142 92.955 295.874 91.3321 292.044 88.3583C288.259 85.4206 285.817 81.1305 285.817 75.52H281.817C281.817 82.4445 284.894 87.8719 289.591 91.518C294.241 95.1279 300.416 96.955 306.702 96.955V92.955ZM285.817 75.52C285.817 70.0972 288.137 65.8917 291.872 62.1567C295.672 58.3571 300.803 55.1723 306.257 51.8071L304.156 48.4029C298.8 51.7077 293.236 55.1354 289.044 59.3283C284.786 63.5858 281.817 68.7528 281.817 75.52H285.817ZM306.28 51.7923C310.673 48.9967 315.287 46.1017 319.238 42.7454C323.206 39.3741 326.628 35.439 328.573 30.4806L324.85 29.0194C323.23 33.146 320.327 36.5709 316.648 39.6971C312.951 42.8383 308.595 45.5783 304.133 48.4177L306.28 51.7923ZM328.168 28.3793C325.931 26.0021 322.749 24.645 319.237 24.645V28.645C321.704 28.645 323.812 29.5879 325.255 31.1207L328.168 28.3793ZM319.237 24.645C313.282 24.645 308.816 28.1162 304.975 31.032C300.938 34.0962 297.527 36.605 293.132 36.605V40.605C299.086 40.605 303.552 37.1338 307.393 34.218C311.43 31.1538 314.841 28.645 319.237 28.645V24.645ZM295.132 38.605V27.795H291.132V38.605H295.132ZM292.739 29.7562C293.88 29.9843 295.324 30.255 296.697 30.255V26.255C295.769 26.255 294.683 26.0657 293.524 25.8338L292.739 29.7562ZM296.697 30.255C301.217 30.255 305.149 29.3035 308.976 28.4214C312.835 27.532 316.666 26.69 321.307 26.69V22.69C316.172 22.69 311.953 23.6305 308.078 24.5236C304.172 25.424 300.686 26.255 296.697 26.255V30.255ZM332.162 77.935V39.41H328.162V77.935H332.162ZM332.162 39.41C332.162 35.8533 331.27 32.7149 329.668 30.177L326.286 32.313C327.443 34.1451 328.162 36.5267 328.162 39.41H332.162ZM325.977 31.245V31.36H329.977V31.245H325.977ZM326.138 30.5722C322.579 38.876 315.895 43.9859 309.156 49.2148L311.608 52.3752C318.208 47.2541 325.784 41.554 329.815 32.1478L326.138 30.5722ZM309.178 49.1976C300.895 55.4386 292.512 61.7461 292.512 74.14H296.512C296.512 63.9939 303.079 58.8014 311.585 52.3924L309.178 49.1976ZM292.512 74.14C292.512 80.3045 294.4 85.15 297.6 88.4663C300.796 91.7782 305.134 93.39 309.692 93.39V89.39C306.084 89.39 302.832 88.1268 300.479 85.6887C298.13 83.255 296.512 79.4755 296.512 74.14H292.512ZM309.692 93.39C317.846 93.39 326.892 88.3316 331.927 78.875L328.396 76.995C324.002 85.2484 316.257 89.39 309.692 89.39V93.39Z" fill="white" fill-opacity="0.98" mask="url(#path-1-outside-1_675_17)"/>
<mask id="path-3-outside-2_675_17" maskUnits="userSpaceOnUse" x="0" y="115" width="271" height="103" fill="black">
<rect fill="white" y="115" width="271" height="103"/>
<path d="M25.77 214H15.075V149.83H2.425V147.53H15.075C0.815 134.535 3.69 117.285 17.835 117.285C26.69 117.285 32.325 127.29 41.87 119.47H42.79V131.545H41.985C30.715 132.58 26.23 119.355 17.375 119.355C7.255 119.355 11.165 136.03 25.54 147.53H40.72V149.83H25.77V214ZM84.0391 215.955C65.1791 215.955 52.4141 203.535 52.4141 180.65C52.4141 158.8 65.2941 145.69 84.0391 145.69C102.899 145.69 115.779 158.685 115.779 180.19C115.779 203.535 103.014 215.955 84.0391 215.955ZM87.2591 213.425C99.2191 213.425 106.119 201.005 106.119 187.435C106.119 169.495 95.8841 148.335 80.2441 148.335C67.9391 148.335 62.1891 160.64 62.1891 174.095C62.1891 192.38 71.9641 213.425 87.2591 213.425ZM146.781 214H136.086V133.27H146.781V214ZM178.835 133.615C175.5 133.615 172.855 130.855 172.855 127.52C172.855 124.185 175.5 121.425 178.835 121.425C182.285 121.425 184.93 124.185 184.93 127.52C184.93 130.855 182.285 133.615 178.835 133.615ZM184.24 214H173.545V147.53H184.24V214ZM236.571 215.955C217.711 215.955 204.946 203.535 204.946 180.65C204.946 158.8 217.826 145.69 236.571 145.69C255.431 145.69 268.311 158.685 268.311 180.19C268.311 203.535 255.546 215.955 236.571 215.955ZM239.791 213.425C251.751 213.425 258.651 201.005 258.651 187.435C258.651 169.495 248.416 148.335 232.776 148.335C220.471 148.335 214.721 160.64 214.721 174.095C214.721 192.38 224.496 213.425 239.791 213.425Z"/>
</mask>
<path d="M25.77 214V216H27.77V214H25.77ZM15.075 214H13.075V216H15.075V214ZM15.075 149.83H17.075V147.83H15.075V149.83ZM2.425 149.83H0.425V151.83H2.425V149.83ZM2.425 147.53V145.53H0.425V147.53H2.425ZM15.075 147.53V149.53H20.239L16.4221 146.052L15.075 147.53ZM41.87 119.47V117.47H41.1553L40.6025 117.923L41.87 119.47ZM42.79 119.47H44.79V117.47H42.79V119.47ZM42.79 131.545V133.545H44.79V131.545H42.79ZM41.985 131.545V129.545H41.8934L41.8021 129.553L41.985 131.545ZM25.54 147.53L24.2906 149.092L24.8384 149.53H25.54V147.53ZM40.72 147.53H42.72V145.53H40.72V147.53ZM40.72 149.83V151.83H42.72V149.83H40.72ZM25.77 149.83V147.83H23.77V149.83H25.77ZM25.77 212H15.075V216H25.77V212ZM17.075 214V149.83H13.075V214H17.075ZM15.075 147.83H2.425V151.83H15.075V147.83ZM4.425 149.83V147.53H0.425V149.83H4.425ZM2.425 149.53H15.075V145.53H2.425V149.53ZM16.4221 146.052C9.6348 139.867 7.18002 132.905 7.7892 127.77C8.092 125.218 9.13943 123.127 10.7641 121.674C12.3826 120.227 14.7181 119.285 17.835 119.285V115.285C13.8794 115.285 10.5512 116.499 8.09797 118.692C5.65088 120.88 4.21863 123.914 3.81705 127.299C3.01748 134.038 6.2552 142.198 13.7279 149.008L16.4221 146.052ZM17.835 119.285C19.6665 119.285 21.3948 119.8 23.2027 120.567C24.111 120.953 25.0039 121.385 25.9455 121.84C26.8701 122.286 27.8433 122.753 28.8337 123.16C30.8184 123.975 33.034 124.619 35.4935 124.421C37.9857 124.221 40.5023 123.176 43.1375 121.017L40.6025 117.923C38.4652 119.674 36.698 120.311 35.1725 120.434C33.6141 120.56 32.0779 120.168 30.3538 119.46C29.4898 119.105 28.6195 118.688 27.6834 118.237C26.7643 117.794 25.7795 117.315 24.7651 116.885C22.7277 116.02 20.431 115.285 17.835 115.285V119.285ZM41.87 121.47H42.79V117.47H41.87V121.47ZM40.79 119.47V131.545H44.79V119.47H40.79ZM42.79 129.545H41.985V133.545H42.79V129.545ZM41.8021 129.553C37.084 129.987 33.7245 127.507 30.0901 124.332C28.3465 122.809 26.4622 121.058 24.4779 119.739C22.446 118.389 20.1206 117.355 17.375 117.355V121.355C19.0569 121.355 20.6127 121.974 22.2644 123.071C23.9638 124.2 25.5653 125.691 27.4586 127.344C31.098 130.523 35.616 134.138 42.1679 133.537L41.8021 129.553ZM17.375 117.355C14.2099 117.355 11.7737 118.725 10.555 121.279C9.42953 123.637 9.52798 126.631 10.3406 129.65C11.9828 135.75 16.8442 143.135 24.2906 149.092L26.7894 145.968C19.8608 140.425 15.5797 133.723 14.2031 128.61C13.5064 126.022 13.6264 124.13 14.1649 123.002C14.6101 122.069 15.4801 121.355 17.375 121.355V117.355ZM25.54 149.53H40.72V145.53H25.54V149.53ZM38.72 147.53V149.83H42.72V147.53H38.72ZM40.72 147.83H25.77V151.83H40.72V147.83ZM23.77 149.83V214H27.77V149.83H23.77ZM84.0391 213.955C75.0611 213.955 67.7238 211.011 62.6185 205.522C57.4995 200.019 54.4141 191.728 54.4141 180.65H50.4141C50.4141 192.457 53.7111 201.819 59.6896 208.246C65.6819 214.689 74.157 217.955 84.0391 217.955V213.955ZM54.4141 180.65C54.4141 170.115 57.514 161.898 62.6648 156.335C67.8032 150.785 75.1518 147.69 84.0391 147.69V143.69C74.1813 143.69 65.7175 147.15 59.7296 153.618C53.7541 160.072 50.4141 169.335 50.4141 180.65H54.4141ZM84.0391 147.69C92.9931 147.69 100.374 150.763 105.524 156.245C110.684 161.738 113.779 169.836 113.779 180.19H117.779C117.779 169.039 114.434 159.887 108.439 153.506C102.435 147.115 93.945 143.69 84.0391 143.69V147.69ZM113.779 180.19C113.779 191.508 110.688 199.913 105.555 205.47C100.439 211.01 93.077 213.955 84.0391 213.955V217.955C93.9761 217.955 102.484 214.69 108.494 208.184C114.487 201.695 117.779 192.217 117.779 180.19H113.779ZM87.2591 215.425C94.0327 215.425 99.3204 211.873 102.835 206.633C106.321 201.435 108.119 194.528 108.119 187.435H104.119C104.119 193.912 102.467 200 99.513 204.405C96.5877 208.767 92.4454 211.425 87.2591 211.425V215.425ZM108.119 187.435C108.119 178.128 105.474 167.993 100.762 160.129C96.0701 152.299 89.0619 146.335 80.2441 146.335V150.335C87.0663 150.335 92.9955 154.951 97.331 162.186C101.646 169.387 104.119 178.802 104.119 187.435H108.119ZM80.2441 146.335C73.2984 146.335 68.189 149.86 64.9065 155.109C61.6725 160.28 60.1891 167.123 60.1891 174.095H64.1891C64.1891 167.612 65.5806 161.575 68.2979 157.23C70.9666 152.962 74.8847 150.335 80.2441 150.335V146.335ZM60.1891 174.095C60.1891 183.552 62.708 193.736 67.2562 201.617C71.7821 209.458 78.5885 215.425 87.2591 215.425V211.425C80.6346 211.425 74.9061 206.869 70.7206 199.617C66.5576 192.404 64.1891 182.923 64.1891 174.095H60.1891ZM146.781 214V216H148.781V214H146.781ZM136.086 214H134.086V216H136.086V214ZM136.086 133.27V131.27H134.086V133.27H136.086ZM146.781 133.27H148.781V131.27H146.781V133.27ZM146.781 212H136.086V216H146.781V212ZM138.086 214V133.27H134.086V214H138.086ZM136.086 135.27H146.781V131.27H136.086V135.27ZM144.781 133.27V214H148.781V133.27H144.781ZM184.24 214V216H186.24V214H184.24ZM173.545 214H171.545V216H173.545V214ZM173.545 147.53V145.53H171.545V147.53H173.545ZM184.24 147.53H186.24V145.53H184.24V147.53ZM178.835 131.615C176.654 131.615 174.855 129.8 174.855 127.52H170.855C170.855 131.91 174.346 135.615 178.835 135.615V131.615ZM174.855 127.52C174.855 125.24 176.654 123.425 178.835 123.425V119.425C174.346 119.425 170.855 123.13 170.855 127.52H174.855ZM178.835 123.425C181.156 123.425 182.93 125.265 182.93 127.52H186.93C186.93 123.105 183.414 119.425 178.835 119.425V123.425ZM182.93 127.52C182.93 129.775 181.156 131.615 178.835 131.615V135.615C183.414 135.615 186.93 131.935 186.93 127.52H182.93ZM184.24 212H173.545V216H184.24V212ZM175.545 214V147.53H171.545V214H175.545ZM173.545 149.53H184.24V145.53H173.545V149.53ZM182.24 147.53V214H186.24V147.53H182.24ZM236.571 213.955C227.593 213.955 220.256 211.011 215.151 205.522C210.032 200.019 206.946 191.728 206.946 180.65H202.946C202.946 192.457 206.243 201.819 212.222 208.246C218.214 214.689 226.689 217.955 236.571 217.955V213.955ZM206.946 180.65C206.946 170.115 210.046 161.898 215.197 156.335C220.335 150.785 227.684 147.69 236.571 147.69V143.69C226.714 143.69 218.25 147.15 212.262 153.618C206.286 160.072 202.946 169.335 202.946 180.65H206.946ZM236.571 147.69C245.525 147.69 252.906 150.763 258.056 156.245C263.216 161.738 266.311 169.836 266.311 180.19H270.311C270.311 169.039 266.966 159.887 260.971 153.506C254.967 147.115 246.477 143.69 236.571 143.69V147.69ZM266.311 180.19C266.311 191.508 263.22 199.913 258.088 205.47C252.971 211.01 245.609 213.955 236.571 213.955V217.955C246.508 217.955 255.017 214.69 261.026 208.184C267.02 201.695 270.311 192.217 270.311 180.19H266.311ZM239.791 215.425C246.565 215.425 251.853 211.873 255.367 206.633C258.853 201.435 260.651 194.528 260.651 187.435H256.651C256.651 193.912 254.999 200 252.045 204.405C249.12 208.767 244.978 211.425 239.791 211.425V215.425ZM260.651 187.435C260.651 178.128 258.007 167.993 253.294 160.129C248.602 152.299 241.594 146.335 232.776 146.335V150.335C239.598 150.335 245.528 154.951 249.863 162.186C254.178 169.387 256.651 178.802 256.651 187.435H260.651ZM232.776 146.335C225.831 146.335 220.721 149.86 217.439 155.109C214.205 160.28 212.721 167.123 212.721 174.095H216.721C216.721 167.612 218.113 161.575 220.83 157.23C223.499 152.962 227.417 150.335 232.776 150.335V146.335ZM212.721 174.095C212.721 183.552 215.24 193.736 219.788 201.617C224.314 209.458 231.121 215.425 239.791 215.425V211.425C233.167 211.425 227.438 206.869 223.253 199.617C219.09 192.404 216.721 182.923 216.721 174.095H212.721Z" fill="white" fill-opacity="0.98" mask="url(#path-3-outside-2_675_17)"/>
<rect x="3" y="255.212" width="85.5" height="6.57692" fill="#7751F5"/>
<rect x="88.5" y="255.212" width="85.5" height="6.57692" fill="#8281F5"/>
<rect x="174" y="255.212" width="85.5" height="6.57692" fill="#C4C5D9"/>
<rect x="259.5" y="255.212" width="85.5" height="6.57692" fill="#EFE7DD"/>
</svg>
